<?xml version="1.0" encoding="UTF-8" standalone="no"?>
<!-- Created with Inkscape (http://www.inkscape.org/) -->

<svg
   xmlns:dc="http://purl.org/dc/elements/1.1/"
   xmlns:cc="http://creativecommons.org/ns#"
   xmlns:rdf="http://www.w3.org/1999/02/22-rdf-syntax-ns#"
   xmlns:svg="http://www.w3.org/2000/svg"
   xmlns="http://www.w3.org/2000/svg"
   xmlns:sodipodi="http://sodipodi.sourceforge.net/DTD/sodipodi-0.dtd"
   xmlns:inkscape="http://www.inkscape.org/namespaces/inkscape"
   width="232"
   height="53.106857"
   id="svg3523"
   version="1.1"
   inkscape:version="0.48.4 r9939"
   sodipodi:docname="logo.svg">
  <defs
     id="defs3525" />
  <sodipodi:namedview
     id="base"
     pagecolor="#ffffff"
     bordercolor="#666666"
     borderopacity="1.0"
     inkscape:pageopacity="0.0"
     inkscape:pageshadow="2"
     inkscape:zoom="0.35"
     inkscape:cx="116"
     inkscape:cy="26.553427"
     inkscape:document-units="px"
     inkscape:current-layer="layer1"
     showgrid="false"
     fit-margin-top="0"
     fit-margin-left="0"
     fit-margin-right="0"
     fit-margin-bottom="0"
     inkscape:window-width="1366"
     inkscape:window-height="706"
     inkscape:window-x="-8"
     inkscape:window-y="32"
     inkscape:window-maximized="1" />
  <metadata
     id="metadata3528">
    <rdf:RDF>
      <cc:Work
         rdf:about="">
        <dc:format>image/svg+xml</dc:format>
        <dc:type
           rdf:resource="http://purl.org/dc/dcmitype/StillImage" />
        <dc:title />
      </cc:Work>
    </rdf:RDF>
  </metadata>
  <g
     inkscape:label="Layer 1"
     inkscape:groupmode="layer"
     id="layer1"
     transform="translate(-259,-505.80875)">
    <g
       transform="matrix(0.9848829,0,0,0.9848829,234.70294,483.84094)"
       id="g3">
      <polygon
         style="fill:#cccccc"
         points="138.418,42.886 99.137,38.193 114.855,22.624 "
         id="polygon5" />
      <polygon
         style="fill:#e6e6e6"
         points="122.238,39.353 82.68,39.774 96.254,22.305 "
         id="polygon7" />
      <rect
         style="fill:#f44647"
         x="71.681999"
         y="38.227001"
         width="77"
         height="38"
         id="rect9" />
      <g
         id="g11">
        <path
           style="fill:#ffffff"
           inkscape:connector-curvature="0"
           d="M 24.67,68.387 V 49.572 c 0,-0.224 0.088,-0.416 0.266,-0.574 0.177,-0.158 0.406,-0.238 0.686,-0.238 h 5.292 c 1.792,0 3.229,0.485 4.312,1.456 1.083,0.971 1.624,2.502 1.624,4.592 v 0.252 c 0,2.091 -0.551,3.626 -1.652,4.606 -1.102,0.98 -2.567,1.47 -4.396,1.47 h -3.78 v 7.252 c 0,0.261 -0.117,0.467 -0.35,0.616 -0.234,0.15 -0.509,0.224 -0.826,0.224 -0.318,0 -0.593,-0.074 -0.826,-0.224 -0.234,-0.15 -0.35,-0.355 -0.35,-0.617 z m 2.352,-9.211 h 3.78 c 1.176,0 2.086,-0.332 2.73,-0.994 0.644,-0.662 0.966,-1.656 0.966,-2.982 v -0.336 c 0,-1.325 -0.322,-2.319 -0.966,-2.982 -0.644,-0.662 -1.554,-0.994 -2.73,-0.994 h -3.78 v 8.288 z"
           id="path13" />
        <path
           style="fill:#ffffff"
           inkscape:connector-curvature="0"
           d="M 39.649,68.387 V 49.572 c 0,-0.224 0.08,-0.411 0.238,-0.56 0.158,-0.149 0.359,-0.233 0.602,-0.252 h 5.124 c 1.866,0 3.369,0.434 4.508,1.302 1.138,0.868 1.708,2.301 1.708,4.298 0,3.08 -1.391,4.9 -4.172,5.46 l 4.144,7.868 c 0.074,0.131 0.112,0.262 0.112,0.392 0,0.299 -0.149,0.574 -0.448,0.826 -0.299,0.252 -0.616,0.378 -0.952,0.378 -0.392,0 -0.747,-0.308 -1.064,-0.924 l -4.228,-8.204 h -3.22 v 8.232 c 0,0.261 -0.117,0.467 -0.35,0.616 -0.234,0.15 -0.509,0.224 -0.826,0.224 -0.318,0 -0.593,-0.074 -0.826,-0.224 -0.233,-0.15 -0.35,-0.355 -0.35,-0.617 z m 2.352,-10.192 h 3.612 c 2.576,0 3.864,-1.222 3.864,-3.668 0,-2.426 -1.288,-3.64 -3.864,-3.64 h -3.612 v 7.308 z"
           id="path15" />
        <path
           style="fill:#ffffff"
           inkscape:connector-curvature="0"
           d="m 54.657,63.291 v -8.428 c 0,-2.109 0.546,-3.654 1.638,-4.634 1.092,-0.98 2.552,-1.47 4.382,-1.47 1.829,0 3.294,0.49 4.396,1.47 1.101,0.98 1.652,2.525 1.652,4.634 v 8.428 c 0,2.11 -0.551,3.654 -1.652,4.634 -1.102,0.98 -2.567,1.47 -4.396,1.47 -1.83,0 -3.29,-0.49 -4.382,-1.47 -1.092,-0.98 -1.638,-2.524 -1.638,-4.634 z m 2.352,0 c 0,2.651 1.222,3.976 3.668,3.976 1.176,0 2.086,-0.331 2.73,-0.994 0.644,-0.662 0.966,-1.656 0.966,-2.982 v -8.428 c 0,-1.325 -0.322,-2.319 -0.966,-2.982 -0.644,-0.662 -1.554,-0.994 -2.73,-0.994 -2.446,0 -3.668,1.326 -3.668,3.976 v 8.428 z"
           id="path17" />
        <path
           style="fill:#3e454c"
           inkscape:connector-curvature="0"
           d="M 76.105,68.387 V 49.599 c 0,-0.261 0.107,-0.466 0.322,-0.616 0.214,-0.149 0.462,-0.224 0.742,-0.224 h 9.968 c 0.261,0 0.462,0.103 0.602,0.308 0.14,0.206 0.21,0.448 0.21,0.728 0,0.299 -0.075,0.556 -0.224,0.77 -0.149,0.215 -0.346,0.322 -0.588,0.322 h -8.68 v 7.112 h 4.368 c 0.242,0 0.438,0.098 0.588,0.294 0.149,0.196 0.224,0.434 0.224,0.714 0,0.243 -0.07,0.462 -0.21,0.658 -0.14,0.196 -0.341,0.294 -0.602,0.294 h -4.368 v 7.14 h 8.68 c 0.242,0 0.438,0.107 0.588,0.322 0.149,0.215 0.224,0.472 0.224,0.77 0,0.28 -0.07,0.523 -0.21,0.728 -0.14,0.206 -0.341,0.308 -0.602,0.308 h -9.968 c -0.28,0 -0.527,-0.074 -0.742,-0.224 -0.214,-0.149 -0.322,-0.354 -0.322,-0.616 z"
           id="path19" />
        <path
           style="fill:#3e454c"
           inkscape:connector-curvature="0"
           d="m 89.433,66.343 c 0,-0.299 0.107,-0.588 0.322,-0.868 0.214,-0.28 0.452,-0.42 0.714,-0.42 0.168,0 0.382,0.117 0.644,0.35 0.261,0.233 0.532,0.495 0.812,0.784 0.28,0.29 0.718,0.551 1.316,0.784 0.597,0.233 1.269,0.35 2.016,0.35 1.213,0 2.165,-0.294 2.856,-0.882 0.69,-0.588 1.036,-1.451 1.036,-2.59 0,-1.026 -0.318,-1.862 -0.952,-2.506 -0.635,-0.644 -1.4,-1.134 -2.296,-1.47 -0.896,-0.336 -1.797,-0.695 -2.702,-1.078 -0.906,-0.382 -1.676,-0.97 -2.31,-1.764 -0.635,-0.793 -0.952,-1.815 -0.952,-3.066 0,-0.981 0.186,-1.835 0.56,-2.562 0.374,-0.726 0.873,-1.273 1.498,-1.641 0.625,-0.368 1.274,-0.637 1.946,-0.807 0.672,-0.169 1.39,-0.254 2.156,-0.254 1.157,0 2.263,0.168 3.318,0.503 1.055,0.335 1.582,0.801 1.582,1.395 0,0.262 -0.093,0.543 -0.28,0.844 -0.187,0.3 -0.43,0.45 -0.728,0.45 -0.075,0 -0.504,-0.177 -1.288,-0.532 -0.784,-0.354 -1.652,-0.532 -2.604,-0.532 -1.139,0 -2.058,0.233 -2.758,0.7 -0.7,0.467 -1.05,1.204 -1.05,2.212 0,0.859 0.317,1.554 0.952,2.086 0.634,0.532 1.404,0.957 2.31,1.274 0.905,0.318 1.806,0.682 2.702,1.092 0.896,0.411 1.661,1.069 2.296,1.974 0.634,0.906 0.952,2.058 0.952,3.458 0,1.923 -0.56,3.375 -1.68,4.354 -1.12,0.979 -2.604,1.47 -4.452,1.47 -1.662,0 -3.066,-0.348 -4.214,-1.045 -1.148,-0.696 -1.722,-1.384 -1.722,-2.063 z"
           id="path21" />
        <path
           style="fill:#3e454c"
           inkscape:connector-curvature="0"
           d="m 103.488,66.343 c 0,-0.299 0.107,-0.588 0.322,-0.868 0.214,-0.28 0.452,-0.42 0.714,-0.42 0.168,0 0.382,0.117 0.644,0.35 0.261,0.233 0.532,0.495 0.812,0.784 0.28,0.29 0.718,0.551 1.316,0.784 0.597,0.233 1.269,0.35 2.016,0.35 1.213,0 2.165,-0.294 2.856,-0.882 0.69,-0.588 1.036,-1.451 1.036,-2.59 0,-1.026 -0.318,-1.862 -0.952,-2.506 -0.635,-0.644 -1.4,-1.134 -2.296,-1.47 -0.896,-0.336 -1.797,-0.695 -2.702,-1.078 -0.906,-0.382 -1.676,-0.97 -2.31,-1.764 -0.635,-0.793 -0.952,-1.815 -0.952,-3.066 0,-0.981 0.186,-1.835 0.56,-2.562 0.374,-0.726 0.873,-1.273 1.498,-1.641 0.625,-0.368 1.274,-0.637 1.946,-0.807 0.672,-0.169 1.39,-0.254 2.156,-0.254 1.157,0 2.263,0.168 3.318,0.503 1.055,0.335 1.582,0.801 1.582,1.395 0,0.262 -0.093,0.543 -0.28,0.844 -0.187,0.3 -0.43,0.45 -0.728,0.45 -0.075,0 -0.504,-0.177 -1.288,-0.532 -0.784,-0.354 -1.652,-0.532 -2.604,-0.532 -1.139,0 -2.058,0.233 -2.758,0.7 -0.7,0.467 -1.05,1.204 -1.05,2.212 0,0.859 0.317,1.554 0.952,2.086 0.634,0.532 1.404,0.957 2.31,1.274 0.905,0.318 1.806,0.682 2.702,1.092 0.896,0.411 1.661,1.069 2.296,1.974 0.634,0.906 0.952,2.058 0.952,3.458 0,1.923 -0.56,3.375 -1.68,4.354 -1.12,0.979 -2.604,1.47 -4.452,1.47 -1.662,0 -3.066,-0.348 -4.214,-1.045 -1.147,-0.696 -1.722,-1.384 -1.722,-2.063 z"
           id="path23" />
        <path
           style="fill:#3e454c"
           inkscape:connector-curvature="0"
           d="m 117.097,68.247 c 0,-0.037 0.018,-0.112 0.056,-0.224 l 5.73,-18.615 c 0.165,-0.544 0.641,-0.817 1.428,-0.817 0.787,0 1.263,0.275 1.428,0.824 l 5.75,18.683 c 0,0.035 0.004,0.07 0.014,0.105 0.009,0.035 0.014,0.061 0.014,0.079 0,0.246 -0.154,0.465 -0.462,0.657 -0.308,0.193 -0.64,0.289 -0.994,0.289 -0.448,0 -0.728,-0.176 -0.84,-0.529 l -1.232,-4.147 h -7.409 l -1.228,4.132 c -0.11,0.363 -0.395,0.544 -0.853,0.544 -0.33,0 -0.646,-0.093 -0.949,-0.28 -0.303,-0.187 -0.453,-0.421 -0.453,-0.701 z m 4.065,-5.656 h 6.248 l -3.114,-10.548 -3.134,10.548 z"
           id="path25" />
        <path
           style="fill:#3e454c"
           inkscape:connector-curvature="0"
           d="m 130.789,49.739 c 0,-0.28 0.154,-0.513 0.462,-0.7 0.308,-0.187 0.621,-0.28 0.938,-0.28 0.336,0 0.616,0.206 0.84,0.616 l 4.928,9.604 4.9,-9.604 c 0.224,-0.41 0.504,-0.616 0.84,-0.616 0.336,0 0.653,0.093 0.952,0.28 0.298,0.187 0.448,0.42 0.448,0.7 0,0.149 -0.038,0.308 -0.112,0.476 l -5.796,10.808 c -0.038,0.056 -0.056,0.15 -0.056,0.28 v 7.084 c 0,0.261 -0.117,0.467 -0.35,0.616 -0.234,0.15 -0.509,0.224 -0.826,0.224 -0.318,0 -0.593,-0.074 -0.826,-0.224 -0.233,-0.149 -0.35,-0.354 -0.35,-0.616 v -7.084 c 0,-0.093 -0.028,-0.187 -0.084,-0.28 l -5.796,-10.808 c -0.075,-0.168 -0.112,-0.326 -0.112,-0.476 z"
           id="path27" />
        <path
           style="fill:#ffffff"
           inkscape:connector-curvature="0"
           d="m 151.649,49.711 c 0,-0.261 0.154,-0.485 0.462,-0.672 0.308,-0.187 0.63,-0.28 0.966,-0.28 0.467,0 0.756,0.177 0.868,0.532 l 4.732,16.632 2.66,-10.248 c 0.13,-0.485 0.54,-0.728 1.228,-0.728 0.651,0 1.042,0.244 1.172,0.73 l 2.688,10.248 4.706,-16.636 c 0.112,-0.353 0.413,-0.53 0.901,-0.53 0.338,0 0.657,0.093 0.958,0.28 0.3,0.187 0.451,0.412 0.451,0.673 0,0.112 -0.01,0.196 -0.028,0.252 l -5.527,18.617 c -0.169,0.542 -0.658,0.813 -1.466,0.813 -0.846,0 -1.335,-0.269 -1.467,-0.806 l -2.397,-9.25 -2.428,9.242 c -0.149,0.542 -0.625,0.813 -1.427,0.813 -0.803,0 -1.287,-0.271 -1.456,-0.812 l -5.54,-18.62 c -0.038,-0.11 -0.056,-0.194 -0.056,-0.25 z"
           id="path29" />
        <path
           style="fill:#ffffff"
           inkscape:connector-curvature="0"
           d="M 175.924,68.387 V 49.572 c 0,-0.224 0.08,-0.411 0.238,-0.56 0.158,-0.149 0.359,-0.233 0.602,-0.252 h 5.124 c 1.866,0 3.369,0.434 4.508,1.302 1.138,0.868 1.708,2.301 1.708,4.298 0,3.08 -1.391,4.9 -4.172,5.46 l 4.144,7.868 c 0.074,0.131 0.112,0.262 0.112,0.392 0,0.299 -0.149,0.574 -0.448,0.826 -0.299,0.252 -0.616,0.378 -0.952,0.378 -0.392,0 -0.747,-0.308 -1.064,-0.924 l -4.228,-8.204 h -3.22 v 8.232 c 0,0.261 -0.117,0.467 -0.35,0.616 -0.234,0.15 -0.509,0.224 -0.826,0.224 -0.318,0 -0.593,-0.074 -0.826,-0.224 -0.233,-0.15 -0.35,-0.355 -0.35,-0.617 z m 2.352,-10.192 h 3.612 c 2.576,0 3.864,-1.222 3.864,-3.668 0,-2.426 -1.288,-3.64 -3.864,-3.64 h -3.612 v 7.308 z"
           id="path31" />
        <path
           style="fill:#ffffff"
           inkscape:connector-curvature="0"
           d="M 191.128,68.387 V 49.572 c 0,-0.261 0.117,-0.462 0.35,-0.602 0.233,-0.14 0.508,-0.21 0.826,-0.21 0.317,0 0.592,0.07 0.826,0.21 0.233,0.14 0.35,0.341 0.35,0.602 v 18.816 c 0,0.261 -0.117,0.467 -0.35,0.616 -0.234,0.15 -0.509,0.224 -0.826,0.224 -0.318,0 -0.593,-0.074 -0.826,-0.224 -0.233,-0.15 -0.35,-0.355 -0.35,-0.617 z"
           id="path33" />
        <path
           style="fill:#ffffff"
           inkscape:connector-curvature="0"
           d="m 195.832,49.796 c 0,-0.273 0.075,-0.514 0.224,-0.723 0.149,-0.209 0.354,-0.313 0.616,-0.313 h 11.396 c 0.261,0 0.466,0.104 0.616,0.313 0.15,0.209 0.224,0.45 0.224,0.723 0,0.291 -0.075,0.545 -0.224,0.764 -0.149,0.219 -0.354,0.328 -0.616,0.328 h -4.508 v 17.497 c 0,0.263 -0.117,0.469 -0.35,0.618 -0.234,0.15 -0.509,0.225 -0.826,0.225 -0.318,0 -0.593,-0.075 -0.826,-0.225 -0.233,-0.149 -0.35,-0.355 -0.35,-0.618 V 50.887 h -4.536 c -0.262,0 -0.467,-0.104 -0.616,-0.314 -0.149,-0.209 -0.224,-0.467 -0.224,-0.777 z"
           id="path35" />
        <path
           style="fill:#ffffff"
           inkscape:connector-curvature="0"
           d="M 211.288,68.387 V 49.572 c 0,-0.261 0.117,-0.462 0.35,-0.602 0.233,-0.14 0.508,-0.21 0.826,-0.21 0.317,0 0.592,0.07 0.826,0.21 0.233,0.14 0.35,0.341 0.35,0.602 v 18.816 c 0,0.261 -0.117,0.467 -0.35,0.616 -0.234,0.15 -0.509,0.224 -0.826,0.224 -0.318,0 -0.593,-0.074 -0.826,-0.224 -0.234,-0.15 -0.35,-0.355 -0.35,-0.617 z"
           id="path37" />
        <path
           style="fill:#ffffff"
           inkscape:connector-curvature="0"
           d="M 217.616,68.387 V 49.572 c 0,-0.542 0.392,-0.812 1.176,-0.812 0.392,0 0.723,0.117 0.994,0.35 0.27,0.234 0.536,0.612 0.798,1.134 l 6.972,13.636 V 49.572 c 0,-0.261 0.116,-0.462 0.35,-0.602 0.233,-0.14 0.508,-0.21 0.826,-0.21 0.317,0 0.592,0.07 0.826,0.21 0.233,0.14 0.35,0.341 0.35,0.602 v 18.816 c 0,0.261 -0.117,0.467 -0.35,0.616 -0.234,0.15 -0.509,0.224 -0.826,0.224 -0.598,0 -1.092,-0.354 -1.484,-1.064 l -7.28,-14.084 v 14.308 c 0,0.261 -0.117,0.467 -0.35,0.616 -0.234,0.15 -0.509,0.224 -0.826,0.224 -0.318,0 -0.593,-0.074 -0.826,-0.224 -0.233,-0.15 -0.35,-0.355 -0.35,-0.617 z"
           id="path39" />
        <path
           style="fill:#ffffff"
           inkscape:connector-curvature="0"
           d="m 233.688,63.291 v -8.428 c 0,-2.109 0.546,-3.654 1.638,-4.634 1.092,-0.98 2.534,-1.47 4.326,-1.47 1.829,0 3.304,0.462 4.424,1.386 1.12,0.924 1.68,2.133 1.68,3.626 0,0.43 -0.098,0.728 -0.294,0.896 -0.196,0.168 -0.49,0.252 -0.882,0.252 -0.766,0 -1.158,-0.271 -1.176,-0.812 -0.243,-2.146 -1.475,-3.22 -3.696,-3.22 -2.446,0 -3.668,1.326 -3.668,3.976 v 8.428 c 0,2.651 1.222,3.976 3.668,3.976 1.176,0 2.086,-0.331 2.73,-0.994 0.644,-0.662 0.966,-1.656 0.966,-2.982 v -2.856 h -3.332 c -0.261,0 -0.462,-0.098 -0.602,-0.294 -0.14,-0.196 -0.21,-0.424 -0.21,-0.686 0,-0.261 0.075,-0.49 0.224,-0.686 0.149,-0.196 0.345,-0.294 0.588,-0.294 h 4.872 c 0.261,0 0.462,0.084 0.602,0.252 0.14,0.168 0.21,0.374 0.21,0.616 v 3.948 c 0,2.11 -0.551,3.654 -1.652,4.634 -1.102,0.98 -2.567,1.47 -4.396,1.47 -1.83,0 -3.29,-0.49 -4.382,-1.47 -1.092,-0.98 -1.638,-2.524 -1.638,-4.634 z"
           id="path41" />
        <path
           style="fill:#ffffff"
           inkscape:connector-curvature="0"
           d="m 248.163,66.343 c 0,-0.299 0.107,-0.588 0.322,-0.868 0.214,-0.28 0.452,-0.42 0.714,-0.42 0.168,0 0.382,0.117 0.644,0.35 0.261,0.233 0.532,0.495 0.812,0.784 0.28,0.29 0.718,0.551 1.316,0.784 0.597,0.233 1.269,0.35 2.016,0.35 1.213,0 2.165,-0.294 2.856,-0.882 0.69,-0.588 1.036,-1.451 1.036,-2.59 0,-1.026 -0.318,-1.862 -0.952,-2.506 -0.635,-0.644 -1.4,-1.134 -2.296,-1.47 -0.896,-0.336 -1.797,-0.695 -2.702,-1.078 -0.906,-0.382 -1.676,-0.97 -2.31,-1.764 -0.635,-0.793 -0.952,-1.815 -0.952,-3.066 0,-0.981 0.186,-1.835 0.56,-2.562 0.374,-0.726 0.873,-1.273 1.498,-1.641 0.625,-0.368 1.274,-0.637 1.946,-0.807 0.672,-0.169 1.39,-0.254 2.156,-0.254 1.157,0 2.263,0.168 3.318,0.503 1.055,0.335 1.582,0.801 1.582,1.395 0,0.262 -0.093,0.543 -0.28,0.844 -0.187,0.3 -0.43,0.45 -0.728,0.45 -0.075,0 -0.504,-0.177 -1.288,-0.532 -0.784,-0.354 -1.652,-0.532 -2.604,-0.532 -1.139,0 -2.058,0.233 -2.758,0.7 -0.7,0.467 -1.05,1.204 -1.05,2.212 0,0.859 0.317,1.554 0.952,2.086 0.634,0.532 1.404,0.957 2.31,1.274 0.905,0.318 1.806,0.682 2.702,1.092 0.896,0.411 1.661,1.069 2.296,1.974 0.634,0.906 0.952,2.058 0.952,3.458 0,1.923 -0.56,3.375 -1.68,4.354 -1.12,0.979 -2.604,1.47 -4.452,1.47 -1.662,0 -3.066,-0.348 -4.214,-1.045 -1.148,-0.696 -1.722,-1.384 -1.722,-2.063 z"
           id="path43" />
      </g>
    </g>
  </g>
</svg>
